<?xml version="1.0" standalone="no"?>
<!DOCTYPE svg PUBLIC "-//W3C//DTD SVG 20010904//EN"
 "http://www.w3.org/TR/2001/REC-SVG-20010904/DTD/svg10.dtd">
<svg version="1.0" xmlns="http://www.w3.org/2000/svg"
 width="383.000000pt" height="384.000000pt" viewBox="0 0 383.000000 384.000000"
 preserveAspectRatio="xMidYMid meet">

<g transform="translate(0.000000,384.000000) scale(0.100000,-0.100000)"
fill="#000000" stroke="none">
<path d="M1379 2098 l-522 -483 98 -92 c54 -51 102 -93 107 -93 7 0 868 790
998 916 l44 44 -34 36 c-19 20 -65 63 -102 95 l-67 60 -522 -483z"/>
<path d="M2223 2100 c-54 -50 -98 -94 -98 -98 0 -10 187 -182 198 -182 4 0 53
41 107 91 l98 91 -72 68 c-39 37 -85 79 -103 94 l-31 26 -99 -90z"/>
<path d="M1381 1322 c-283 -262 -516 -481 -517 -487 -2 -10 175 -176 195 -183
7 -2 862 780 1018 932 l33 31 -101 93 c-56 50 -104 92 -108 92 -3 -1 -237
-216 -520 -478z"/>
<path d="M2636 1707 l-99 -93 99 -92 c54 -51 103 -92 109 -92 5 1 54 42 107
93 l98 92 -101 93 c-55 50 -104 92 -107 92 -4 -1 -51 -42 -106 -93z"/>
<path d="M536 1317 l-99 -93 59 -55 c32 -31 78 -73 101 -93 50 -44 40 -48 165
69 l85 80 -96 89 c-53 49 -101 91 -106 93 -6 1 -55 -39 -109 -90z"/>
<path d="M2216 1317 l-99 -92 64 -61 c83 -79 135 -124 144 -124 3 0 51 41 106
92 l99 92 -97 92 c-54 51 -103 93 -108 94 -6 0 -55 -42 -109 -93z"/>
<path d="M3056 1317 l-99 -93 98 -89 c53 -50 102 -90 109 -90 7 0 56 41 109
90 l97 91 -101 92 c-56 51 -104 92 -108 92 -3 -1 -50 -42 -105 -93z"/>
<path d="M2636 928 l-99 -93 99 -92 c54 -51 104 -93 109 -92 6 0 54 42 108 93
l98 92 -99 92 c-55 51 -104 92 -109 92 -4 0 -53 -42 -107 -92z"/>
</g>
</svg>
